<?xml version="1.0" encoding="utf-8"?>
<!-- Generator: Adobe Illustrator 21.0.2, SVG Export Plug-In . SVG Version: 6.00 Build 0)  -->
<svg version="1.1" id="Capa_1" xmlns="http://www.w3.org/2000/svg" xmlns:xlink="http://www.w3.org/1999/xlink" x="0px" y="0px"
	 viewBox="0 0 512 512" style="enable-background:new 0 0 512 512;" xml:space="preserve">
<style type="text/css">
	.st0{fill:#C0E0FF;}
</style>
<g>
	<g>
		<path class="st0" d="M19.3,130.4h473.4c10.7,0,19.3-8.7,19.3-19.3s-8.7-19.3-19.3-19.3H19.3C8.7,91.8,0,100.4,0,111.1
			S8.7,130.4,19.3,130.4z"/>
		<path class="st0" d="M19.3,275.3h473.4c10.7,0,19.3-8.7,19.3-19.3c0-10.7-8.7-19.3-19.3-19.3H19.3C8.7,236.7,0,245.3,0,256
			C0,266.7,8.7,275.3,19.3,275.3z"/>
		<path class="st0" d="M19.3,420.2h473.4c10.7,0,19.3-8.7,19.3-19.3c0-10.7-8.7-19.3-19.3-19.3H19.3C8.7,381.6,0,390.2,0,400.9
			C0,411.6,8.7,420.2,19.3,420.2z"/>
	</g>
</g>
</svg>
